<svg xmlns="http://www.w3.org/2000/svg" xmlns:xlink="http://www.w3.org/1999/xlink" version="1.1" id="worker" x="0px" y="0px" width="12em" height="12em" viewBox="0 0 100 100" enable-background="new 0 0 100 100" xml:space="preserve">
<g>
	<g>
		<g>
			<g>
				<path fill="#000000" d="M50.303,23.633c6.531,0,11.815-5.292,11.815-11.816C62.118,5.29,56.834,0,50.303,0      c-6.526,0-11.81,5.29-11.81,11.817C38.493,18.341,43.777,23.633,50.303,23.633z"/>
			</g>
		</g>
	</g>
	<g>
		<g>
			<path fill="#000000" d="M73.773,26.427H26.84v46.93h9.707V100H49.01V73.356h3.151V100h11.903V73.356h9.708V26.427H73.773z      M67.684,67.268H32.929V32.515h34.755C67.684,32.515,67.684,67.268,67.684,67.268z"/>
		</g>
	</g>
</g>
<g>
	<g>
		<path class="gear" fill="#000000" d="M65.207,52.58v-5.16l-4.194-0.427c-0.221-0.865-0.547-1.695-0.975-2.481l2.63-3.225l-3.649-3.649    l-3.175,2.588c-0.801-0.46-1.652-0.811-2.543-1.053l-0.415-4.075h-5.16l-0.422,4.144c-0.853,0.253-1.667,0.61-2.436,1.066    l-3.274-2.669l-3.649,3.648l2.777,3.405c-0.378,0.725-0.67,1.486-0.874,2.275l-4.443,0.452v5.16l4.611,0.469    c0.225,0.708,0.522,1.387,0.887,2.034l-2.958,3.629l3.649,3.648l3.681-3.001c0.63,0.338,1.289,0.612,1.969,0.819l0.481,4.723h5.16    l0.473-4.653c0.717-0.199,1.41-0.471,2.071-0.812l3.588,2.925l3.649-3.648l-2.818-3.456c0.416-0.706,0.748-1.452,0.996-2.232    L65.207,52.58z M50.427,52.829c-1.715,0-3.11-1.395-3.11-3.11s1.395-3.11,3.11-3.11s3.109,1.395,3.109,3.11    S52.141,52.829,50.427,52.829z"/>
	</g>
</g>
</svg>
